# xmcd
#
# Track frame offsets:
#	150
#	15642
#	31427
#	48543
#	65837
#	88430
#	104792
#	120312
#	133562
#	148327
#	165862
#	181944
#	198110
#	215026
#
# Disc length: 3139 seconds
# Revision: 0
# Processed by: cddbd v1.5.2PL0 Copyright (c) Steve Scherf et al.
# Submitted via: dBpowerAMP V12.0
#
DISCID=d10c410e
DTITLE=Steve Spurgin - Solo Flight
DYEAR=2015
DGENRE=Country
TTITLE0=Church Street Blues
TTITLE1=A Long Time Back
TTITLE2=Darcy Farrow
TTITLE3=Evangelina
TTITLE4=The Light's Still on at Trixie's
TTITLE5=Roadside Stand
TTITLE6=Let 'er Run
TTITLE7=The Sky and the Cross
TTITLE8=I Miss My Mary Tonight
TTITLE9=Sweet Allis Chalmers
TTITLE10=Sing Me a Song About Home
TTITLE11=Larimer Street
TTITLE12=Strange
TTITLE13=Lay This Old Guitar Down
EXTD=
EXTT0=
EXTT1=
EXTT2=
EXTT3=
EXTT4=
EXTT5=
EXTT6=
EXTT7=
EXTT8=
EXTT9=
EXTT10=
EXTT11=
EXTT12=
EXTT13=
PLAYORDER=
